<?xml version="1.0" encoding="UTF-8"?><svg id="Layer_2" xmlns="http://www.w3.org/2000/svg" viewBox="0 0 988.14 195.87"><defs><style>.cls-1{fill:#333;}</style></defs><g id="Layer_1-2"><g><path class="cls-1" d="M21.37,1.88c2.14,1.25,3.81,2.98,5.02,5.17,1.21,2.19,1.81,4.64,1.81,7.35s-.6,5.17-1.81,7.38c-1.21,2.21-2.88,3.95-5.02,5.21-2.14,1.25-4.57,1.88-7.27,1.88s-5.13-.63-7.27-1.88c-2.14-1.25-3.81-2.99-5.02-5.21-1.21-2.22-1.81-4.68-1.81-7.38s.6-5.16,1.81-7.35c1.21-2.19,2.88-3.91,5.02-5.17,2.14-1.25,4.56-1.88,7.27-1.88s5.13,.63,7.27,1.88Zm-.96,23.44c1.85-1.08,3.27-2.58,4.28-4.5,1.01-1.92,1.51-4.06,1.51-6.42s-.51-4.49-1.51-6.39c-1.01-1.89-2.44-3.38-4.28-4.47-1.85-1.08-3.95-1.62-6.31-1.62-3.59,0-6.5,1.17-8.71,3.51-2.22,2.34-3.32,5.33-3.32,8.97,0,2.36,.51,4.5,1.51,6.42,1.01,1.92,2.42,3.42,4.25,4.5,1.82,1.08,3.91,1.62,6.28,1.62s4.47-.54,6.31-1.62Zm-1.22-11.11c-.79,.81-1.85,1.29-3.17,1.44l4.73,6.57-2.73,.07-4.58-6.64h-2.29v6.64h-2.36V6.5h6.5c1.58,0,2.82,.39,3.73,1.18,.91,.79,1.37,1.92,1.37,3.4,0,1.28-.39,2.33-1.18,3.14Zm-8.05-.55h3.91c2.02,0,3.03-.86,3.03-2.58,0-.84-.27-1.46-.81-1.88-.54-.42-1.28-.63-2.22-.63h-3.91v5.09Z"/><g><path class="cls-1" d="M88.22,44.54c4.01,0,7.05-1.22,9.12-3.67,2.07-2.44,3.1-5.23,3.1-8.37s-1.07-5.92-3.2-8.37c-2.13-2.44-5.14-3.67-9.02-3.67s-7.08,1.22-9.21,3.67c-2.13,2.44-3.2,5.24-3.2,8.37s1.06,5.92,3.2,8.37c2.13,2.44,5.2,3.67,9.21,3.67Z"/><path class="cls-1" d="M60.21,44.54c4.01,0,7.05-1.22,9.12-3.67,2.07-2.44,3.1-5.23,3.1-8.37s-1.03-5.92-3.1-8.37c-2.07-2.44-5.11-3.67-9.12-3.67s-7.05,1.22-9.12,3.67c-2.07,2.44-3.1,5.24-3.1,8.37s1.03,5.92,3.1,8.37c2.07,2.44,5.11,3.67,9.12,3.67Z"/><path class="cls-1" d="M152.14,171.81c-4.01,0-7.05,1.22-9.12,3.67-2.07,2.44-3.1,5.23-3.1,8.37s1.03,5.92,3.1,8.36c2.07,2.44,5.1,3.67,9.12,3.67s7.05-1.22,9.12-3.67,3.1-5.23,3.1-8.36-1.03-5.92-3.1-8.37-5.11-3.67-9.12-3.67Z"/><path class="cls-1" d="M180.15,171.81c-4.01,0-7.08,1.22-9.21,3.67-2.13,2.44-3.2,5.23-3.2,8.37s1.06,5.92,3.2,8.36c2.13,2.44,5.2,3.67,9.21,3.67s7.05-1.22,9.12-3.67c2.07-2.44,3.1-5.23,3.1-8.36s-1.07-5.92-3.2-8.37c-2.13-2.44-5.14-3.67-9.02-3.67Z"/><path class="cls-1" d="M233.16,129.13h-36.85c-1.63,0-3.45-.5-5.45-1.5-3.26-1.38-5.89-3.6-7.9-6.67-2.01-3.07-3.01-6.36-3.01-9.87v-33.46h-26.51v39.85c0,3.13-.66,5.67-1.97,7.61-1.32,1.94-3.6,3.23-6.86,3.85-.88,.13-1.76,.19-2.63,.19h-19.55c-5.01,0-8.37-1.57-10.06-4.7-1.69-3.13-2.54-7.08-2.54-11.84V58.26h-40.23c-7.9,0-14.41,1.29-19.55,3.85-5.14,2.57-9.21,5.99-12.22,10.25-3.01,4.26-5.14,9.12-6.39,14.57-1.25,5.45-1.88,11.06-1.88,16.83,0,5.39,.88,10.62,2.63,15.7,1.75,5.07,4.35,9.59,7.8,13.54,3.45,3.95,7.74,7.14,12.88,9.59,5.14,2.44,11.09,3.67,17.86,3.67,2.88,0,5.39-.22,7.52-.66,2.13-.44,4.04-1.06,5.73-1.88,1.69-.81,3.2-1.82,4.51-3.01,1.32-1.19,2.66-2.6,4.04-4.23,1.88,3.76,4.1,6.71,6.67,8.84,2.57,2.13,5.42,3.76,8.55,4.89,3.13,1.13,6.45,1.82,9.96,2.07,3.51,.25,7.14,.38,10.9,.38h14.66c6.02,0,11.62-1.22,16.83-3.67,5.2-2.44,9.43-5.86,12.69-10.25,2.38,3.64,5.7,6.86,9.96,9.68,4.26,2.82,8.77,4.23,13.54,4.23h63.35V21.22h-26.51v107.91Zm-150.39-24.44c0,2.38-.06,4.67-.19,6.86-.13,2.2-.56,4.17-1.32,5.92-.75,1.76-1.94,3.17-3.57,4.23-1.63,1.07-3.95,1.6-6.96,1.6s-5.23-.5-7.05-1.5c-1.82-1-3.23-2.41-4.23-4.23-1-1.82-1.69-3.91-2.07-6.3-.38-2.38-.56-4.89-.56-7.52,0-2.26,.12-4.67,.38-7.24,.25-2.57,.81-4.98,1.69-7.24,.88-2.25,2.16-4.14,3.85-5.64,1.69-1.5,3.98-2.26,6.86-2.26,3.76,0,6.89,1.22,9.4,3.67,2.51,2.44,3.76,5.36,3.76,8.74v10.9Z"/><path class="cls-1" d="M390.89,90.78c2.88,0,5.26,.66,7.14,1.97,1.88,1.32,3.51,3.23,4.89,5.73l1.88,3.01,18.42-16.73-1.13-1.69c-3.26-4.89-7.58-9.05-12.97-12.5-5.39-3.45-11.53-5.17-18.42-5.17-6.39,0-12.03,1.32-16.92,3.95-4.89,2.63-8.99,5.99-12.31,10.06-3.32,4.08-5.8,8.65-7.43,13.72-1.63,5.07-2.44,10.06-2.44,14.94,0,3.64,.38,7.24,1.13,10.81,.75,3.57,1.94,6.99,3.57,10.25h-47.37V21.22h-26.88V152.63h108.66c5.26,0,10.18-.97,14.76-2.91,4.57-1.94,8.49-4.73,11.75-8.36l1.69-1.69-17.86-17.29-2.07,1.5c-1.13,.75-2.38,1.41-3.76,1.97-1.38,.56-2.63,.85-3.76,.85-5.26,0-9.28-1.88-12.03-5.64-2.76-3.76-4.14-8.08-4.14-12.97s1.32-8.83,3.95-12.22c2.63-3.38,6.52-5.07,11.66-5.07Z"/><path class="cls-1" d="M584.9,129.13h-68.81c-7.02,0-11.94-1.82-14.76-5.45-2.82-3.63-4.23-8.65-4.23-15.04v-18.42h-24.63v18.23c0,6.14,.88,11.91,2.63,17.3,1.75,5.39,4.42,10.06,7.99,14,3.57,3.95,8.08,7.08,13.54,9.4,5.45,2.32,11.94,3.48,19.46,3.48h95.31V77.06h-26.51v52.07Z"/><path class="cls-1" d="M555.01,59.2c4.01,0,7.05-1.22,9.12-3.67,2.07-2.44,3.1-5.23,3.1-8.37s-1.07-5.92-3.2-8.36c-2.13-2.44-5.14-3.67-9.02-3.67s-7.08,1.22-9.21,3.67c-2.13,2.44-3.2,5.23-3.2,8.36s1.06,5.92,3.2,8.37c2.13,2.44,5.2,3.67,9.21,3.67Z"/><path class="cls-1" d="M527,59.2c4.01,0,7.05-1.22,9.12-3.67,2.07-2.44,3.1-5.23,3.1-8.37s-1.04-5.92-3.1-8.36c-2.07-2.44-5.11-3.67-9.12-3.67s-7.05,1.22-9.12,3.67c-2.07,2.44-3.1,5.23-3.1,8.36s1.04,5.92,3.1,8.37c2.07,2.44,5.11,3.67,9.12,3.67Z"/><rect class="cls-1" x="633.96" y="21.22" width="26.51" height="131.41"/><path class="cls-1" d="M743.19,74.8c-1.63-1.75-3.64-3.41-6.02-4.98-2.38-1.56-4.89-2.91-7.52-4.04-2.63-1.13-5.33-2.04-8.08-2.73-2.76-.69-5.39-1.03-7.89-1.03-4.01,0-7.8,.66-11.37,1.97-3.57,1.32-6.92,3.04-10.06,5.17l-2.07,1.5,14.29,17.86,2.07-.94c2.25-1.13,4.63-1.69,7.14-1.69,1.75,0,3.22,.19,4.42,.57,1.19,.38,2.98,1.32,5.36,2.82,2.88,2.76,4.7,5.48,5.45,8.18,.75,2.7,1.13,6.05,1.13,10.06v21.62h-46.43l-2.82-.19v23.87h34.97l38.35-.19v-49.25c0-5.14-.91-10.18-2.72-15.13-1.82-4.95-4.55-9.43-8.18-13.44Z"/><path class="cls-1" d="M865.2,171.81c-4.01,0-7.08,1.22-9.21,3.67-2.13,2.44-3.2,5.23-3.2,8.37s1.06,5.92,3.2,8.36c2.13,2.44,5.2,3.67,9.21,3.67s7.05-1.22,9.12-3.67c2.07-2.44,3.1-5.23,3.1-8.36s-1.07-5.92-3.2-8.37c-2.13-2.44-5.14-3.67-9.02-3.67Z"/><path class="cls-1" d="M837.19,171.81c-4.01,0-7.05,1.22-9.12,3.67-2.07,2.44-3.1,5.23-3.1,8.37s1.03,5.92,3.1,8.36c2.07,2.44,5.11,3.67,9.12,3.67s7.05-1.22,9.12-3.67c2.07-2.44,3.1-5.23,3.1-8.36s-1.03-5.92-3.1-8.37c-2.07-2.44-5.11-3.67-9.12-3.67Z"/><path class="cls-1" d="M963.89,123.87c-1.13,.75-2.38,1.41-3.76,1.97-1.38,.56-2.63,.85-3.76,.85-5.26,0-9.28-1.88-12.03-5.64-2.76-3.76-4.14-8.08-4.14-12.97s1.32-8.83,3.95-12.22c2.63-3.38,6.51-5.07,11.65-5.07,2.88,0,5.26,.66,7.14,1.97,1.88,1.32,3.51,3.23,4.89,5.73l1.88,3.01,18.42-16.73-1.13-1.69c-3.26-4.89-7.58-9.05-12.97-12.5-5.39-3.45-11.53-5.17-18.42-5.17-6.39,0-12.03,1.32-16.92,3.95-4.89,2.63-9,5.99-12.31,10.06-3.32,4.08-5.8,8.65-7.43,13.72-1.63,5.07-2.44,10.06-2.44,14.94,0,3.64,.38,7.24,1.13,10.81,.75,3.57,1.94,6.99,3.57,10.25h-39.86c-1.63,0-3.45-.5-5.45-1.5-3.26-1.38-5.89-3.6-7.9-6.67-2.01-3.07-3.01-6.36-3.01-9.87v-33.46h-26.51v39.85c0,3.13-.66,5.67-1.97,7.61-1.32,1.94-3.6,3.23-6.86,3.85-.88,.13-1.76,.19-2.63,.19h-27.63V21.22h-26.88V152.63h55.84c6.02,0,11.62-1.22,16.83-3.67,5.2-2.44,9.43-5.86,12.69-10.25,2.38,3.64,5.7,6.86,9.96,9.68,4.26,2.82,8.77,4.23,13.54,4.23h74.26c5.26,0,10.18-.97,14.76-2.91,4.57-1.94,8.49-4.73,11.75-8.36l1.69-1.69-17.86-17.29-2.07,1.5Z"/></g></g></g></svg>